<svg xmlns="http://www.w3.org/2000/svg" viewBox="0 0 32 32">
  <path fill="#326CE5" d="M16 0c-1.507 0-2.973.425-4.24 1.225L4.225 6.46c-2.533 1.6-4.07 4.346-4.07 7.286v9.508c0 2.94 1.537 5.687 4.07 7.286l7.535 5.235C13.027 36.575 14.493 37 16 37s2.973-.425 4.24-1.225l7.535-5.235c2.533-1.6 4.07-4.346 4.07-7.286V13.746c0-2.94-1.537-5.687-4.07-7.286l-7.535-5.235C18.973.425 17.507 0 16 0zm-.012 4.229l9.515 4.53c.218.104.377.299.427.526l2.183 9.544a.796.796 0 01-.112.615l-6.197 8.533a.797.797 0 01-.712.366h-10.39a.797.797 0 01-.712-.366l-6.197-8.533a.796.796 0 01-.112-.615l2.183-9.544c.05-.227.209-.422.427-.526l9.515-4.53a.796.796 0 01.782 0z"/>
  <path fill="#326CE5" d="M16 7.384c-.438 0-.79.352-.79.79v6.158c0 .438.352.79.79.79s.79-.352.79-.79V8.174c0-.438-.352-.79-.79-.79zm-4.158 1.835c-.38 0-.687.307-.687.687 0 .127.035.251.1.36l3.084 5.34c.219.38.705.51 1.084.291.38-.219.51-.705.291-1.084l-3.084-5.34a.794.794 0 00-.688-.364zm8.316 0a.794.794 0 00-.688.364l-3.084 5.34c-.219.38-.089.865.291 1.084.38.219.865.089 1.084-.291l3.084-5.34a.794.794 0 00-.687-1.047z"/>
</svg> 